# Blender v3.0.1 OBJ File: ''
# www.blender.org
mtllib flap.mtl
o Cube_Cube.001
v 0.000000 0.000000 0.000000
v 0.000000 1.000000 0.000000
v 0.500000 0.166197 0.000000
v 0.000000 0.166197 0.000000
v 0.456194 0.000000 0.000000
v 0.456194 1.000000 0.000000
v 0.456194 0.166197 0.000000
v 0.500000 0.954168 0.000000
v 0.456194 1.000000 0.000000
v 0.499936 0.956649 0.000000
v 0.499743 0.959123 0.000000
v 0.499423 0.961583 0.000000
v 0.498976 0.964020 0.000000
v 0.498403 0.966429 0.000000
v 0.497707 0.968802 0.000000
v 0.496889 0.971132 0.000000
v 0.495951 0.973412 0.000000
v 0.494897 0.975636 0.000000
v 0.493730 0.977797 0.000000
v 0.492452 0.979888 0.000000
v 0.491068 0.981904 0.000000
v 0.489581 0.983839 0.000000
v 0.487997 0.985687 0.000000
v 0.486319 0.987442 0.000000
v 0.484554 0.989099 0.000000
v 0.482704 0.990654 0.000000
v 0.480778 0.992103 0.000000
v 0.478779 0.993439 0.000000
v 0.476713 0.994661 0.000000
v 0.474588 0.995764 0.000000
v 0.472408 0.996745 0.000000
v 0.470182 0.997601 0.000000
v 0.467914 0.998329 0.000000
v 0.465611 0.998928 0.000000
v 0.463281 0.999396 0.000000
v 0.460931 0.999731 0.000000
v 0.458566 0.999933 0.000000
v -0.500000 0.166197 0.000000
v -0.456194 0.000000 0.000000
v -0.456194 1.000000 0.000000
v -0.456194 0.166197 0.000000
v -0.500000 0.954168 0.000000
v -0.456194 1.000000 0.000000
v -0.499936 0.956649 0.000000
v -0.499743 0.959123 0.000000
v -0.499423 0.961583 0.000000
v -0.498976 0.964020 0.000000
v -0.498403 0.966429 0.000000
v -0.497707 0.968802 0.000000
v -0.496889 0.971132 0.000000
v -0.495951 0.973412 0.000000
v -0.494897 0.975636 0.000000
v -0.493730 0.977797 0.000000
v -0.492452 0.979888 0.000000
v -0.491068 0.981904 0.000000
v -0.489581 0.983839 0.000000
v -0.487997 0.985687 0.000000
v -0.486319 0.987442 0.000000
v -0.484554 0.989099 0.000000
v -0.482704 0.990654 0.000000
v -0.480778 0.992103 0.000000
v -0.478779 0.993439 0.000000
v -0.476713 0.994661 0.000000
v -0.474588 0.995764 0.000000
v -0.472408 0.996745 0.000000
v -0.470182 0.997601 0.000000
v -0.467914 0.998329 0.000000
v -0.465611 0.998928 0.000000
v -0.463281 0.999396 0.000000
v -0.460931 0.999731 0.000000
v -0.458566 0.999933 0.000000
vt 0.416549 0.750000
vt 0.613542 0.750000
vt 0.614162 0.750016
vt 0.614781 0.750064
vt 0.615395 0.750144
vt 0.616005 0.750256
vt 0.616607 0.750399
vt 0.617200 0.750573
vt 0.617783 0.750778
vt 0.618353 0.751012
vt 0.618909 0.751276
vt 0.619449 0.751567
vt 0.619972 0.751887
vt 0.620476 0.752233
vt 0.620960 0.752604
vt 0.621421 0.753001
vt 0.621860 0.753420
vt 0.622275 0.753861
vt 0.622664 0.754324
vt 0.623026 0.754806
vt 0.623360 0.755305
vt 0.623665 0.755822
vt 0.623941 0.756353
vt 0.624186 0.756898
vt 0.624400 0.757454
vt 0.624582 0.758021
vt 0.624732 0.758597
vt 0.624849 0.759180
vt 0.624933 0.759767
vt 0.624983 0.760358
vt 0.625000 0.760951
vt 0.625000 0.760951
vt 0.416549 0.760951
vt 0.625000 0.875000
vt 0.416549 0.875000
vt 0.375000 0.760951
vt 0.375000 0.875000
vt 0.416549 0.750000
vt 0.416549 0.760951
vt 0.625000 0.760951
vt 0.625000 0.760951
vt 0.624983 0.760358
vt 0.624933 0.759767
vt 0.624849 0.759180
vt 0.624732 0.758597
vt 0.624582 0.758021
vt 0.624400 0.757454
vt 0.624186 0.756898
vt 0.623941 0.756353
vt 0.623665 0.755822
vt 0.623360 0.755305
vt 0.623026 0.754806
vt 0.622664 0.754324
vt 0.622275 0.753861
vt 0.621860 0.753420
vt 0.621421 0.753001
vt 0.620960 0.752604
vt 0.620476 0.752233
vt 0.619972 0.751887
vt 0.619449 0.751567
vt 0.618909 0.751276
vt 0.618353 0.751012
vt 0.617783 0.750778
vt 0.617200 0.750573
vt 0.616607 0.750399
vt 0.616005 0.750256
vt 0.615395 0.750144
vt 0.614781 0.750064
vt 0.614162 0.750016
vt 0.613542 0.750000
vt 0.375000 0.760951
vn 0.0000 0.0000 1.0000
usemtl None
s off
f 3/1/1 8/2/1 10/3/1 11/4/1 12/5/1 13/6/1 14/7/1 15/8/1 16/9/1 17/10/1 18/11/1 19/12/1 20/13/1 21/14/1 22/15/1 23/16/1 24/17/1 25/18/1 26/19/1 27/20/1 28/21/1 29/22/1 30/23/1 31/24/1 32/25/1 33/26/1 34/27/1 35/28/1 36/29/1 37/30/1 9/31/1 6/32/1 7/33/1
f 7/33/1 6/32/1 2/34/1 4/35/1
f 5/36/1 7/33/1 4/35/1 1/37/1
f 38/38/1 41/39/1 40/40/1 43/41/1 71/42/1 70/43/1 69/44/1 68/45/1 67/46/1 66/47/1 65/48/1 64/49/1 63/50/1 62/51/1 61/52/1 60/53/1 59/54/1 58/55/1 57/56/1 56/57/1 55/58/1 54/59/1 53/60/1 52/61/1 51/62/1 50/63/1 49/64/1 48/65/1 47/66/1 46/67/1 45/68/1 44/69/1 42/70/1
f 41/39/1 4/35/1 2/34/1 40/40/1
f 39/71/1 1/37/1 4/35/1 41/39/1
